<svg width="24" height="24" viewBox="0 0 24 24" fill="none" xmlns="http://www.w3.org/2000/svg">
<path d="M9.59525 20.8162H3.93924V14.571V14.5098L3.89649 14.4661L3.0343 13.5843L3.89649 12.7025L3.93924 12.6587V12.5976V6.36943H7.9101H9.59525H9.76574H9.91574V6.21943V1.10254V0.952539H9.76574H7.9101H7.7601V1.10254V4.03566H3.78924H3.30688H1.93048H1.78048V4.18566V12.3507H0.515625H0.365625V12.5007V14.5345V14.6845H0.515625H1.78048V22.9829V23.1329H1.93048H3.12361V23.15H3.27361H9.59525H9.74525V23V20.9662V20.8162H9.59525Z" fill="#E0024D" stroke="#E0024D" stroke-width="0.3"/>
<path d="M22.9748 12.5007V12.3507H22.8248H21.56V4.18566V4.03566H21.41H20.0336H19.5512H15.5803V1.10254V0.952539H15.4303H13.5747H13.4247V1.10254V6.21943V6.36943H13.5747H13.7452H15.4303H19.4012V12.5976V12.6587L19.4439 12.7024L20.3052 13.5843L19.4439 14.4662L19.4012 14.5099V14.571V20.8162H13.7452H13.5952V20.9662V23V23.15H13.7452H20.0668H20.2168V23.1329H21.41H21.56V22.9829V14.6845H22.8248H22.9748V14.5345V12.5007Z" fill="#E0024D" stroke="#E0024D" stroke-width="0.3"/>
</svg>
